<svg xmlns="http://www.w3.org/2000/svg" width="104.391" height="50.812" viewBox="0 0 104.391 50.812">
  <g id="그룹_14" data-name="그룹 14" transform="translate(-398.032 -94.161)">
    <path id="패스_25" data-name="패스 25" d="M494.772,140.354c-.03.089.015-.009-.074.163a4.531,4.531,0,0,1-.367.6,6.185,6.185,0,0,1-1.783,1.6c-3.125,1.92-7.253,1.722-10.726,1.167-6.624-1.058-12.671-4.241-19.4-4.825a19.267,19.267,0,0,0-11.254,2.008,10.457,10.457,0,0,0-3.373,2.877,9.967,9.967,0,0,0-2.538-2.37,17.52,17.52,0,0,0-10.234-2.615,35.089,35.089,0,0,0-8.6,1.364c-3.562.984-6.973,2.4-10.6,3.179-3.8.819-8.364,1.387-12.012-.379a6.812,6.812,0,0,1-2.421-1.866,4.91,4.91,0,0,1-.442-.679,1.036,1.036,0,0,1-.105-.223c-.15-.436-.847-.249-.7.192a5.64,5.64,0,0,0,2.181,2.548c2.708,1.887,6.347,2.049,9.517,1.757a42.355,42.355,0,0,0,8.808-1.9,71.6,71.6,0,0,1,10.425-2.914c4.171-.656,8.757-.593,12.577,1.416a9.368,9.368,0,0,1,3.84,3.326.364.364,0,0,0,.623,0,8.641,8.641,0,0,1,2.971-2.826c3.345-2.106,7.473-2.511,11.332-2.175,6.8.591,12.915,3.88,19.634,4.864,3.459.507,7.4.63,10.557-1.13a6.067,6.067,0,0,0,2.853-2.967C495.619,140.106,494.923,139.917,494.772,140.354Z" fill="#1d1611"/>
    <path id="패스_26" data-name="패스 26" d="M400.844,98.779c.031-.088-.015.009.074-.163a4.716,4.716,0,0,1,.368-.6,6.182,6.182,0,0,1,1.782-1.6c3.126-1.92,7.254-1.722,10.726-1.167,6.625,1.059,12.671,4.241,19.4,4.825a19.256,19.256,0,0,0,11.253-2.008,10.448,10.448,0,0,0,3.374-2.877,9.967,9.967,0,0,0,2.537,2.371,17.531,17.531,0,0,0,10.234,2.614,35.1,35.1,0,0,0,8.6-1.364c3.562-.984,6.972-2.4,10.6-3.179,3.8-.819,8.364-1.387,12.012.379a6.8,6.8,0,0,1,2.421,1.866,4.826,4.826,0,0,1,.443.679,1.059,1.059,0,0,1,.1.223c.15.436.847.249.7-.191a5.63,5.63,0,0,0-2.181-2.548c-2.708-1.888-6.346-2.05-9.516-1.757a42.277,42.277,0,0,0-8.808,1.9A71.666,71.666,0,0,1,464.537,99.1c-4.171.656-8.758.593-12.578-1.416a9.374,9.374,0,0,1-3.84-3.326.363.363,0,0,0-.622,0,8.647,8.647,0,0,1-2.972,2.827c-3.345,2.105-7.473,2.51-11.331,2.174-6.8-.59-12.915-3.88-19.635-4.864-3.458-.507-7.4-.63-10.557,1.131a6.063,6.063,0,0,0-2.853,2.967C400,99.027,400.694,99.216,400.844,98.779Z" fill="#1d1611"/>
    <g id="그룹_13" data-name="그룹 13">
      <path id="패스_27" data-name="패스 27" d="M410.434,127.205c.7,1.768,2.263,2.756,5.747,2.756h8.684V129.6c-1.43-.494-2.444-1.872-2.444-4.16v-7.8a5.161,5.161,0,0,0,4.992,2.912,7.212,7.212,0,0,0,3.719-1.04V119.5a14.592,14.592,0,0,0,1.534-.984v6.917c-.026,2.366-.987,3.562-2.548,4.16v.364h7.956V129.6c-1.456-.494-2.418-1.924-2.5-4.29v-7.956c0-5.122-3.874-6.63-6.994-6.63-2.912.078-5.3,1.195-6.162,3.38v-3.017h-.338a8.876,8.876,0,0,1-3.848.6c-3.432,0-7.8-.806-11.545-.806a10.982,10.982,0,0,0-6.708,2.237v6.344h.364c.546-5.434,3.822-8.008,7.281-8.008,3.354.078,6.422.467,9.75.6,1.742.077,2.08.988,2.08,2.365v11.025c-.024,2.148-.845,3.326-2.162,3.973a2.686,2.686,0,0,1-1.114.161c-2.835,0-3.328-2.236-3.328-6.578v-3.9c0-3.978-1.742-6.084-4.109-6.916l-.051.234a3.12,3.12,0,0,1,1.2,2.7c0,4.706-11.856,4.55-11.856,10.79,0,3.016,2.314,4.472,5.252,4.472A9.72,9.72,0,0,0,410.434,127.205Zm17.5-16.016c2.455,0,4.256,1.644,4.648,4.672a25.237,25.237,0,0,1-1.853,1.894,7.038,7.038,0,0,1-4.485,1.676c-2.288,0-3.822-1.2-3.822-3.484C422.421,112.956,425.151,111.189,427.933,111.189Zm-26.911,14.17c0-5.122,7.2-5.59,8.866-8.918v6.552a12.888,12.888,0,0,0,.416,3.8,8.123,8.123,0,0,1-5.486,2.705C402.3,129.494,401.022,127.725,401.022,125.359Z" fill="#1d1611"/>
      <path id="패스_28" data-name="패스 28" d="M445.274,111.084a5.681,5.681,0,0,1,.651-.026,6.116,6.116,0,0,1,4.784,2.393,11.412,11.412,0,0,1,2.34,6.11h.364v-6.474a10.154,10.154,0,0,0-6.735-2.5c-5.72,0-9.308,4.342-9.308,9.828,0,5.564,3.588,9.854,9.308,9.854a8.8,8.8,0,0,0,7.878-4.342l-1.9-.494c-.677,2.548-2.341,4.368-5.07,4.368-4.057,0-6.6-4.732-7.151-8.97a15.521,15.521,0,0,1-.156-2.21,10.412,10.412,0,0,1,.729-4.16A4.882,4.882,0,0,1,445.274,111.084Z" fill="#1d1611"/>
      <path id="패스_29" data-name="패스 29" d="M459.782,110.9l-4.706,2.912v.389c2.08,0,2.054,1.223,2.054,3.147v8.112c0,2.314-.989,3.536-2.548,4.134v.364h7.956V129.6c-1.43-.494-2.444-1.976-2.444-4.29V110.9Z" fill="#1d1611"/>
      <path id="패스_30" data-name="패스 30" d="M499.952,125.307v-7.956c0-5.122-3.874-6.63-6.994-6.63-2.912.078-5.33,1.195-6.188,3.38v-3.017h-.312c-.13.131-1.352.859-2.47,1.561-.677.442-1.431.91-2.236,1.4v.338c2.08,0,2.053,1.248,2.053,3.146v7.9c0,2.366-.961,3.562-2.521,4.16H476.19a8.587,8.587,0,0,0,1.948-1.2c4.6-3.64,2.185-9.516-2-9.724l4.887-1.716a8.839,8.839,0,0,0-8.71-6.266,8.982,8.982,0,0,0-5.642,1.794c2.211-4-.962-8.139-5.174-8.139a7.219,7.219,0,0,0-3.874,1.2,2.1,2.1,0,0,0-1.04,1.846,2.147,2.147,0,0,0,2.158,2.133,2.1,2.1,0,0,0,2.1-2.107,2.055,2.055,0,0,0-1.923-2.132,6.709,6.709,0,0,1,2.547-.545c2.757,0,5.54,2.106,5.54,5.018,0,1.794-.885,2.834-1.821,4.134a10.366,10.366,0,0,0-2.21,6.6c0,5.538,3.615,9.88,9.334,9.88a9.769,9.769,0,0,0,3.065-.472l0,.005,5.9.048v0h7.982V129.6c-1.43-.494-2.419-1.872-2.5-4.16v-7.8a5.25,5.25,0,0,0,5.018,2.912,7.3,7.3,0,0,0,3.5-.916l.013.012a14.277,14.277,0,0,0,1.74-1.111v6.9c-.026,2.366-.987,3.562-2.522,4.16v.364h7.9V129.6C500.992,129.1,500.056,127.673,499.952,125.307Zm-33.9-4.394c-.546-4.16.416-9.1,4.576-9.724.286-.027.52-.052.755-.052,3.3,0,5.538,3.146,6.578,6.5-1.118.39-2.471.858-3.9,1.352-2.963,1.04-6.11,2.106-7.852,2.73A3.693,3.693,0,0,1,466.048,120.913Zm7.15,9c-3.64,0-6.11-3.953-6.942-7.827l7.93-2.73a5,5,0,0,1,1.716-.312,4.2,4.2,0,0,1,3.719,2.236c1.924,3.432-.78,7.488-5.175,8.476A5.131,5.131,0,0,1,473.2,129.91Zm21.621-11.894a7.3,7.3,0,0,1-4.227,1.415c-2.289,0-3.77-1.2-3.77-3.484,0-2.991,2.7-4.758,5.486-4.758,2.446,0,4.245,1.629,4.645,4.635A25.247,25.247,0,0,1,494.819,118.016Z" fill="#1d1611"/>
    </g>
  </g>
</svg>
